<svg width="28" height="28" viewBox="0 0 28 28" fill="none" xmlns="http://www.w3.org/2000/svg">
<g id="heroicons-solid/home">
<g id="Vector">
<path d="M13.3813 4.48089C13.723 4.13918 14.277 4.13918 14.6187 4.48089L24.7563 14.6185C25.098 14.9602 25.652 14.9602 25.9937 14.6185C26.3354 14.2767 26.3354 13.7227 25.9937 13.381L15.8562 3.24345C14.831 2.21833 13.169 2.21833 12.1438 3.24345L2.00628 13.381C1.66457 13.7227 1.66457 14.2767 2.00628 14.6185C2.34799 14.9602 2.90201 14.9602 3.24372 14.6185L13.3813 4.48089Z" fill="#342A6A"/>
<path d="M14 6.33705L23.5188 15.8559C23.5535 15.8906 23.5889 15.9241 23.625 15.9564V23.1872C23.625 24.3954 22.6456 25.3747 21.4375 25.3747H17.5C17.0168 25.3747 16.625 24.983 16.625 24.4997V19.2497C16.625 18.7665 16.2332 18.3747 15.75 18.3747H12.25C11.7668 18.3747 11.375 18.7665 11.375 19.2497V24.4997C11.375 24.983 10.9832 25.3747 10.5 25.3747H6.5625C5.35438 25.3747 4.375 24.3954 4.375 23.1872V15.9564C4.41108 15.9241 4.44648 15.8906 4.48116 15.8559L14 6.33705Z" fill="#342A6A"/>
</g>
</g>
</svg>
