<svg width="28" height="28" viewBox="0 0 28 28" fill="none" xmlns="http://www.w3.org/2000/svg">
<g id="heroicons-outline/cog-8-tooth">
<g id="Vector">
<path d="M12.0664 4.59673C12.1719 3.96385 12.7194 3.5 13.361 3.5H14.6373C15.2789 3.5 15.8265 3.96385 15.932 4.59673L16.1058 5.63951C16.1883 6.13449 16.5533 6.53145 17.0168 6.72387C17.4804 6.91638 18.0128 6.89067 18.4214 6.59887L19.2819 5.98422C19.804 5.6113 20.5191 5.67049 20.9728 6.12417L21.8753 7.02665C22.329 7.48033 22.3882 8.19551 22.0152 8.7176L21.4004 9.57841C21.1087 9.98681 21.0829 10.519 21.2754 10.9826C21.4677 11.4459 21.8646 11.8109 22.3595 11.8934L23.4025 12.0672C24.0353 12.1727 24.4992 12.7203 24.4992 13.3619V14.6381C24.4992 15.2797 24.0353 15.8273 23.4025 15.9328L22.3597 16.1066C21.8647 16.1891 21.4677 16.5542 21.2753 17.0176C21.0828 17.4812 21.1085 18.0136 21.4003 18.4221L22.0148 19.2825C22.3878 19.8046 22.3286 20.5197 21.8749 20.9734L20.9724 21.8759C20.5187 22.3296 19.8036 22.3888 19.2815 22.0159L18.4209 21.4012C18.0125 21.1094 17.4802 21.0837 17.0167 21.2762C16.5533 21.4686 16.1883 21.8655 16.1058 22.3604L15.932 23.4033C15.8265 24.0361 15.2789 24.5 14.6373 24.5H13.361C12.7194 24.5 12.1719 24.0361 12.0664 23.4033L11.8926 22.3605C11.8101 21.8655 11.445 21.4686 10.9816 21.2761C10.5179 21.0836 9.98555 21.1093 9.57704 21.4011L8.71649 22.0158C8.19439 22.3887 7.47921 22.3296 7.02553 21.8759L6.12306 20.9734C5.66938 20.5197 5.61019 19.8045 5.98311 19.2824L6.59798 18.4216C6.8897 18.0132 6.91542 17.481 6.72297 17.0174C6.53061 16.5541 6.13374 16.1891 5.63887 16.1066L4.5959 15.9328C3.96303 15.8273 3.49918 15.2797 3.49918 14.6381V13.3619C3.49918 12.7203 3.96303 12.1727 4.5959 12.0672L5.63868 11.8934C6.13366 11.8109 6.53062 11.4458 6.72305 10.9824C6.91556 10.5187 6.88985 9.98631 6.59805 9.57779L5.98357 8.71752C5.61065 8.19543 5.66984 7.48025 6.12352 7.02657L7.02599 6.1241C7.47967 5.67041 8.19485 5.61122 8.71694 5.98415L9.57747 6.59881C9.98589 6.89054 10.5182 6.91626 10.9817 6.72381C11.4451 6.53143 11.8101 6.13455 11.8926 5.63967L12.0664 4.59673Z" stroke="#3F3F46" stroke-width="2" stroke-linecap="round" stroke-linejoin="round"/>
<path d="M17.5 14C17.5 15.933 15.933 17.5 14 17.5C12.067 17.5 10.5 15.933 10.5 14C10.5 12.067 12.067 10.5 14 10.5C15.933 10.5 17.5 12.067 17.5 14Z" stroke="#3F3F46" stroke-width="2" stroke-linecap="round" stroke-linejoin="round"/>
</g>
</g>
</svg>
